# xmcd CD database file
#
# Track frame offsets:
#	150
#	24415
#	43665
#	68520
#
# Disc length: 1234 seconds
#
# Revision: 0
# Processed by: cddbd v1.5.1PL0 Copyright (c) Steve Scherf et al.
# Submitted via: CDex 1.51
#
DISCID=2804d004
DTITLE=Rina Aiuchi - Run up
DYEAR=2001
DGENRE=JPop
TTITLE0=Run up
TTITLE1=Rainbow
TTITLE2=Run up -GLOBAL TRANCE Mix-
TTITLE3=Run up <instrumental>
EXTD=YEAR: 2001
EXTT0=
EXTT1=
EXTT2=
EXTT3=
PLAYORDER=
